
<?xml version="1.0" encoding="UTF-8"?>
<svg version="1.1" xmlns="http://www.w3.org/2000/svg" width="406" height="378">
<path d="M0 0 C1.12063843 0.10501831 1.12063843 0.10501831 2.26391602 0.2121582 C6.82249793 0.70876488 11.16771672 1.59905292 15.61254883 2.7331543 C16.68297928 3.00500046 17.75340973 3.27684662 18.85627747 3.55693054 C19.6668309 3.76501846 20.47738434 3.97310638 21.3125 4.1875 C21.44126544 33.9532722 21.56878906 63.71904953 21.69468227 93.48483402 C21.70969471 97.03407884 21.72471727 100.58332361 21.73974609 104.13256836 C21.74273671 104.83887945 21.74572732 105.54519053 21.74880856 106.27290498 C21.79665881 117.56833934 21.84532032 128.86377006 21.89430541 140.15919954 C21.94490531 151.83135956 21.99457849 163.50352328 22.04346704 175.17569059 C22.07080668 181.69717296 22.09854314 188.21865319 22.12730408 194.74012947 C22.28196916 229.88945713 22.34298707 265.0378334 22.3125 300.1875 C19.39694885 300.85939656 16.48023049 301.52519308 13.5625 302.1875 C12.325 302.47367187 12.325 302.47367187 11.0625 302.765625 C9.86367187 303.03632812 9.86367187 303.03632812 8.640625 303.3125 C7.9074707 303.48007812 7.17431641 303.64765625 6.41894531 303.8203125 C4.3125 304.1875 4.3125 304.1875 0.3125 304.1875 C0.3125 249.4075 0.3125 194.6275 0.3125 138.1875 C-11.8975 138.1875 -24.1075 138.1875 -36.6875 138.1875 C-36.6875 192.9675 -36.6875 247.7475 -36.6875 304.1875 C-53.6875 301.1875 -53.6875 301.1875 -57.6875 300.1875 C-57.6875 202.8375 -57.6875 105.4875 -57.6875 5.1875 C-38.94025064 -1.06158312 -19.58823563 -1.93090452 0 0 Z M-36.6875 22.1875 C-36.6875 53.8675 -36.6875 85.5475 -36.6875 118.1875 C-24.4775 118.1875 -12.2675 118.1875 0.3125 118.1875 C0.3125 86.5075 0.3125 54.8275 0.3125 22.1875 C-2.6252597 20.71862015 -5.2470752 21.05761394 -8.5234375 21.0546875 C-9.1991983 21.05373077 -9.87495911 21.05277405 -10.57119751 21.05178833 C-12.00189304 21.05110751 -13.43259165 21.05295499 -14.86328125 21.05712891 C-17.04694627 21.06246201 -19.23040404 21.05718928 -21.4140625 21.05078125 C-22.80468795 21.05144237 -24.19531328 21.05272425 -25.5859375 21.0546875 C-27.48351807 21.05637939 -27.48351807 21.05637939 -29.41943359 21.05810547 C-32.84531723 21.08247954 -32.84531723 21.08247954 -36.6875 22.1875 Z " fill="#204AA2" transform="translate(220.6875,37.8125)"/>
<path d="M0 0 C0 93.72 0 187.44 0 284 C-5 283 -5 283 -21 275 C-21 226.16 -21 177.32 -21 127 C-38.82 127 -56.64 127 -75 127 C-75.75383639 169.96867443 -66.57805556 202.0259567 -37 234 C-38.65863505 238.32504836 -41.871041 241.09418825 -45.125 244.25 C-45.68832031 244.80429687 -46.25164062 245.35859375 -46.83203125 245.9296875 C-48.21686028 247.29104485 -49.60783204 248.64614859 -51 250 C-69.30036311 241.58104246 -81.79259277 212.83162785 -88.4921875 195.09765625 C-98.31501783 168.11928792 -101.25035257 136.05684503 -94 108 C-93.70198486 106.82171631 -93.70198486 106.82171631 -93.39794922 105.61962891 C-83.27594523 66.70109221 -59.68858788 32.32223182 -24.8828125 11.49609375 C-5.11139297 0 -5.11139297 0 0 0 Z M-32 47 C-32.54978516 47.51433594 -33.09957031 48.02867188 -33.66601562 48.55859375 C-45.22132332 59.47266693 -54.44034521 71.12387075 -62.3125 84.9375 C-62.88919434 85.93668457 -62.88919434 85.93668457 -63.47753906 86.95605469 C-67.57576002 94.43011027 -69.92228325 101.79275534 -73 110 C-55.84 110 -38.68 110 -21 110 C-21 86.24 -21 62.48 -21 38 C-24.58536051 38 -29.36716853 44.53314431 -32 47 Z " fill="#214AA3" transform="translate(148,48)"/>
<path d="M0 0 C1.13799545 -0.01058945 1.13799545 -0.01058945 2.29898071 -0.02139282 C33.62761956 -0.24677295 33.62761956 -0.24677295 47.79296875 3.203125 C48.6530957 3.40180176 49.51322266 3.60047852 50.39941406 3.80517578 C63.5630413 6.89582692 75.68501124 11.21385787 87.79296875 17.203125 C88.50791504 17.54714355 89.22286133 17.89116211 89.95947266 18.24560547 C101.2268472 23.69510229 111.07883168 30.33303593 120.79296875 38.203125 C121.41333008 38.70247559 122.03369141 39.20182617 122.67285156 39.71630859 C141.23908201 54.78234805 155.86950163 72.93678897 166.79296875 94.203125 C167.13811523 94.8636084 167.48326172 95.5240918 167.83886719 96.20458984 C179.46740843 118.68097684 186.06516611 143.88825068 186.79296875 169.203125 C186.83292969 170.193125 186.87289063 171.183125 186.9140625 172.203125 C187.96964177 220.88395709 168.5402514 265.34084105 135.55615234 300.43823242 C129.95280005 306.23922508 123.96771609 311.28330075 117.43994141 316.0078125 C115.88864473 317.13368687 114.36135922 318.29243424 112.8359375 319.453125 C75.39200939 346.9349071 28.38661825 356.49942551 -17.20703125 350.203125 C-24.65023858 348.96156606 -31.93694634 347.21246625 -39.20703125 345.203125 C-39.98062988 344.99204102 -40.75422852 344.78095703 -41.55126953 344.56347656 C-59.24156966 339.58795986 -76.44993071 331.15399932 -91.20703125 320.203125 C-92.24601562 319.44644531 -93.285 318.68976563 -94.35546875 317.91015625 C-132.4131661 289.72578429 -156.74075278 248.81329581 -164.51953125 202.140625 C-170.60892197 155.33227817 -159.55018518 107.99780979 -131.1640625 69.94921875 C-127.56034833 65.29070089 -123.65581012 60.96413279 -119.58984375 56.70703125 C-117.67988675 54.70001086 -115.93112279 52.67812838 -114.20703125 50.515625 C-110.15744628 45.73919145 -105.11061853 42.05414277 -100.20703125 38.203125 C-99.20414062 37.38457031 -98.20125 36.56601562 -97.16796875 35.72265625 C-89.05120175 29.17096581 -80.46705996 23.98186432 -71.20703125 19.203125 C-70.52624512 18.84976074 -69.84545898 18.49639648 -69.14404297 18.13232422 C-48.06223668 7.33481199 -23.80774752 0.14804254 0 0 Z M-61.20703125 26.203125 C-61.89603516 26.53683105 -62.58503906 26.87053711 -63.29492188 27.21435547 C-78.2082063 34.49119694 -91.22895903 43.7034103 -103.20703125 55.203125 C-104.13773438 56.07066406 -105.0684375 56.93820313 -106.02734375 57.83203125 C-135.76388306 86.06999002 -154.23745051 126.58113579 -155.484375 167.60546875 C-156.43255291 212.76984684 -142.40792056 251.69298309 -113.20703125 286.203125 C-112.12615234 287.48896484 -112.12615234 287.48896484 -111.0234375 288.80078125 C-105.62148778 295.03083735 -99.72468743 300.17039185 -93.20703125 305.203125 C-91.83611328 306.29753906 -91.83611328 306.29753906 -90.4375 307.4140625 C-67.43669907 325.34902356 -40.91228558 335.72497646 -12.20703125 340.203125 C-11.12043213 340.37513428 -10.03383301 340.54714355 -8.91430664 340.72436523 C33.45223763 346.19560615 77.46976767 333.36057947 111.17773438 307.49121094 C117.44616512 302.49238376 123.13480909 296.87041073 128.79296875 291.203125 C129.41558594 290.6153125 130.03820312 290.0275 130.6796875 289.421875 C157.08929367 264.21530946 174.49642253 224.42179273 175.91918945 187.96923828 C176.92491745 140.09658561 163.86530036 97.22843802 130.421875 61.9296875 C129.12056641 60.58003906 129.12056641 60.58003906 127.79296875 59.203125 C127.01824219 58.36523438 126.24351562 57.52734375 125.4453125 56.6640625 C114.05446495 44.68370531 100.41552301 35.72943969 85.79296875 28.203125 C84.79426758 27.6774292 84.79426758 27.6774292 83.77539062 27.14111328 C39.46296786 4.0146347 -16.57447008 4.09863729 -61.20703125 26.203125 Z " fill="#21489E" transform="translate(193.20703125,13.796875)"/>
<path d="M0 0 C1.81541948 0.7218673 3.62716678 1.45297029 5.4375 2.1875 C6.95150391 2.79658203 6.95150391 2.79658203 8.49609375 3.41796875 C12.81248485 5.36684098 16.89240173 7.64876205 21 10 C20.99501401 11.09699093 20.99002802 12.19398186 20.98489094 13.32421494 C20.86598168 40.04146965 20.81051807 66.7582854 20.82121754 93.475811 C20.82492964 106.3964081 20.80818026 119.3163684 20.74291992 132.23681641 C20.68607742 143.50102521 20.6679744 154.76452364 20.6959936 166.0288527 C20.70948196 171.99114366 20.70384127 177.95200712 20.65177345 183.91411591 C20.60332191 189.53232645 20.6068818 195.14816204 20.64941406 200.76639748 C20.65597822 202.82223387 20.64394211 204.87823199 20.61136436 206.93382072 C20.37623824 220.81883118 20.37623824 220.81883118 27.39628601 232.31866455 C31.03470253 236.03225922 31.03470253 236.03225922 36 237 C57.24196105 218.25250777 70.55874348 186.61943544 74 159 C74.10957031 158.16210938 74.21914063 157.32421875 74.33203125 156.4609375 C77.44931849 128.28066088 72.28623079 100.09061077 57 76 C56.53980469 75.4836499 56.07960938 74.9672998 55.60546875 74.43530273 C51.3552135 69.618695 51.56333841 65.34005995 51.8671875 59.08007812 C51.95226562 57.87802734 52.03734375 56.67597656 52.125 55.4375 C52.2178125 53.62862305 52.2178125 53.62862305 52.3125 51.78320312 C52.60712119 46.44761336 53.05357878 41.26342167 54 36 C75.62132088 52.33610911 88.79871701 82.32957274 95 108 C95.24556641 108.97066406 95.24556641 108.97066406 95.49609375 109.9609375 C100.62795162 131.08213767 100.07408818 156.93953754 95 178 C94.83371094 178.70398926 94.66742188 179.40797852 94.49609375 180.13330078 C85.99657318 214.81606668 64.02981618 247.18063688 35 268 C32.07066948 266.67643303 29.98845898 265.24053736 27.71606445 262.97485352 C27.09895096 262.36404434 26.48183746 261.75323517 25.84602356 261.12391663 C25.1917186 260.4655632 24.53741364 259.80720978 23.86328125 259.12890625 C23.18323532 258.45077377 22.50318939 257.7726413 21.80253601 257.07395935 C20.36874495 255.64152742 18.93746905 254.2065741 17.50854492 252.76928711 C15.31713872 250.56716141 13.11525998 248.37591561 10.91210938 246.18554688 C9.52019146 244.79230764 8.12889392 243.39844828 6.73828125 242.00390625 C6.07790359 241.34757706 5.41752594 240.69124786 4.73713684 240.01502991 C3.82565132 239.09408791 3.82565132 239.09408791 2.89575195 238.15454102 C2.35932571 237.61652359 1.82289948 237.07850616 1.2702179 236.52418518 C-1.90517936 232.7138992 -1.14041533 227.84662331 -1.12939453 223.17480469 C-1.13112419 222.26098557 -1.13285385 221.34716646 -1.13463593 220.40565586 C-1.13902901 217.3277111 -1.1360237 214.2498206 -1.1328125 211.171875 C-1.13382995 208.96616092 -1.13517045 206.76044698 -1.1368103 204.55473328 C-1.13953941 198.54230171 -1.13498935 192.52989552 -1.12857056 186.5174675 C-1.12500989 182.76043368 -1.12338232 179.0034037 -1.12231445 175.24636841 C-1.1017841 116.8282072 -0.59022416 58.41487392 0 0 Z " fill="#214AA3" transform="translate(258,47)"/>
<path d="M0 0 C3.51617015 5.27425523 3.12269219 11.22809519 3.08229065 17.40953064 C3.07744696 18.47818394 3.07744696 18.47818394 3.07250541 19.56842619 C3.06051461 21.93752006 3.04112505 24.3064932 3.02172852 26.67553711 C3.01157677 28.38097884 3.00188408 30.08642336 2.99261475 31.79187012 C2.96622344 36.40911546 2.93342592 41.02629552 2.89946485 45.64349055 C2.86503272 50.47345005 2.83651079 55.30344439 2.80735779 60.13343811 C2.75129044 69.2740965 2.68991972 78.41471126 2.62663645 87.55532223 C2.55483294 97.96396714 2.48895258 108.37264691 2.42356598 118.7813338 C2.2889609 140.18760116 2.14692971 161.59381392 2 183 C3.32 183.33 4.64 183.66 6 184 C4 185 4 185 0 184 C0 123.28 0 62.56 0 0 Z " fill="#24478C" transform="translate(163,154)"/>
<path d="M0 0 C0 93.72 0 187.44 0 284 C-3.82303833 283.23539233 -6.38393238 282.52385218 -9.8125 280.9375 C-10.60269531 280.57527344 -11.39289063 280.21304687 -12.20703125 279.83984375 C-12.79871094 279.56269531 -13.39039063 279.28554688 -14 279 C-10 278 -10 278 -1 282 C-1.33 190.59 -1.66 99.18 -2 5 C-4.31 4.67 -6.62 4.34 -9 4 C-6.10130984 1.70103884 -3.84906588 0 0 0 Z " fill="#214288" transform="translate(148,48)"/>
<path d="M0 0 C2.52619948 1.14086428 2.78855985 2.42392768 3.9375 4.875 C4.9275 5.205 5.9175 5.535 6.9375 5.875 C8.86150227 8.08876165 10.66171639 10.29811113 12.4375 12.625 C13.16646484 13.55699219 13.16646484 13.55699219 13.91015625 14.5078125 C17.1755851 18.72528736 20.23464892 22.76644675 21.9375 27.875 C19.6275 28.865 17.3175 29.855 14.9375 30.875 C10.83351599 27.60305658 7.22688344 24.72310612 4.9375 19.875 C4.9375 19.215 4.9375 18.555 4.9375 17.875 C3.9475 17.545 2.9575 17.215 1.9375 16.875 C0.75 13.8125 0.75 13.8125 -0.0625 10.875 C0.5975 10.875 1.2575 10.875 1.9375 10.875 C1.9375 9.885 1.9375 8.895 1.9375 7.875 C1.0403125 8.2153125 1.0403125 8.2153125 0.125 8.5625 C-2.0625 8.875 -2.0625 8.875 -3.8125 7.6875 C-5.0625 5.875 -5.0625 5.875 -5.0625 1.875 C-2.0625 -0.125 -2.0625 -0.125 0 0 Z " fill="#2048A2" transform="translate(62.0625,279.125)"/>
<path d="M0 0 C6.44967714 1.74315598 10.74664381 4.58907844 17 8 C17 78.95 17 149.9 17 223 C16.67 223 16.34 223 16 223 C15.67 152.05 15.34 81.1 15 8 C11.37 7.01 7.74 6.02 4 5 C3.34 4.67 2.68 4.34 2 4 C2 3.34 2 2.68 2 2 C1.34 2 0.68 2 0 2 C0 1.34 0 0.68 0 0 Z " fill="#304480" transform="translate(262,49)"/>
<path d="M0 0 C0.75042068 0.02361099 1.50084137 0.04722198 2.27400208 0.07154846 C4.66854344 0.14806298 7.06275138 0.23213951 9.45703125 0.31640625 C11.08136395 0.36963919 12.70571287 0.42237951 14.33007812 0.47460938 C18.31010659 0.60366152 22.28985269 0.73949579 26.26953125 0.87890625 C27.9729233 4.28569034 27.34569395 8.17424891 27.29125977 11.91845703 C27.28165222 12.85509186 27.27204468 13.79172668 27.262146 14.75674438 C27.22907986 17.86264383 27.18877655 20.96840594 27.1484375 24.07421875 C27.12414383 26.22369905 27.1002999 28.37318447 27.07688904 30.52267456 C27.01397322 36.18790514 26.94492784 41.85304528 26.87463379 47.51818848 C26.80401798 53.29593782 26.73916064 59.07375143 26.67382812 64.8515625 C26.54471917 76.19408104 26.40913889 87.53651241 26.26953125 98.87890625 C25.60953125 98.87890625 24.94953125 98.87890625 24.26953125 98.87890625 C24.26953125 67.19890625 24.26953125 35.51890625 24.26953125 2.87890625 C12.05953125 2.87890625 -0.15046875 2.87890625 -12.73046875 2.87890625 C-8.99072007 -0.86084243 -4.92887195 -0.18298251 0 0 Z " fill="#264588" transform="translate(196.73046875,57.12109375)"/>
<path d="M0 0 C9.00839659 1.62227481 18.00468854 3.30703046 27 5 C26.67 5.66 26.34 6.32 26 7 C26.99 7.66 27.98 8.32 29 9 C29.6875 11.625 29.6875 11.625 30 14 C38.74574215 14.81928504 47.47197257 15.27180528 56.25 15.5625 C57.48363281 15.60568359 58.71726563 15.64886719 59.98828125 15.69335938 C62.99210867 15.79814405 65.99599975 15.9003154 69 16 C69 16.33 69 16.66 69 17 C46.87950382 18.62553795 25.51159163 17.6594992 4 12 C4 11.67 4 11.34 4 11 C5.58294782 10.94562393 7.16644256 10.90703729 8.75 10.875 C9.63171875 10.85179687 10.5134375 10.82859375 11.421875 10.8046875 C14.1390446 11.01053368 15.62686837 11.74037599 18 13 C20.66303039 12.85125183 20.66303039 12.85125183 23 12 C23.33 11.34 23.66 10.68 24 10 C22.02 10 20.04 10 18 10 C18 8.66666667 18 7.33333333 18 6 C13.71 6 9.42 6 5 6 C5.33 5.34 5.66 4.68 6 4 C4.68 3.67 3.36 3.34 2 3 C2 2.34 2 1.68 2 1 C1.34 0.67 0.68 0.34 0 0 Z " fill="#244592" transform="translate(154,348)"/>
<path d="M0 0 C0.99 0 1.98 0 3 0 C3 0.66 3 1.32 3 2 C6.92438786 3.66489182 10.89100419 4.87204037 15 6 C15.12375 6.928125 15.12375 6.928125 15.25 7.875 C15.81258459 10.18437567 15.81258459 10.18437567 18.0625 11.25 C19.0215625 11.62125 19.0215625 11.62125 20 12 C20 12.66 20 13.32 20 14 C20.66 14 21.32 14 22 14 C21.814375 14.598125 21.62875 15.19625 21.4375 15.8125 C20.77906313 18.16408762 20.77906313 18.16408762 22 21 C22.66 21.33 23.32 21.66 24 22 C23.01 22.99 22.02 23.98 21 25 C20.67 24.01 20.34 23.02 20 22 C18.67532254 21.3162955 17.34136367 20.65035814 16 20 C15.34 19.01 14.68 18.02 14 17 C14.66 17 15.32 17 16 17 C16 16.34 16 15.68 16 15 C15.01 15.33 14.02 15.66 13 16 C9.54635193 15.13658798 8.30508449 14.48109478 6.375 11.4375 C5.92125 10.633125 5.4675 9.82875 5 9 C4.01 8.67 3.02 8.34 2 8 C2 6.68 2 5.36 2 4 C1.01 4 0.02 4 -1 4 C-0.67 2.68 -0.34 1.36 0 0 Z " fill="#204AA4" transform="translate(300,47)"/>
<path d="M0 0 C1.5 1.1875 1.5 1.1875 3 3 C3.25 5.625 3.25 5.625 3 8 C2.67 8.33 2.34 8.66 2 9 C1.9175 10.19625 1.835 11.3925 1.75 12.625 C1.29184994 16.82345708 -0.22482956 19.14726916 -2.796875 22.4140625 C-4.36572798 24.48209597 -5.18181076 26.54543227 -6 29 C-6.37125 30.093125 -6.7425 31.18625 -7.125 32.3125 C-7.41375 33.199375 -7.7025 34.08625 -8 35 C-9.96602468 32.05096298 -10.73897585 30.48032201 -11 27 C-10.51015625 26.55527344 -10.0203125 26.11054688 -9.515625 25.65234375 C-7.77060239 24.08333115 -7.77060239 24.08333115 -7.77734375 21.66015625 C-7.83019531 20.80292969 -7.88304687 19.94570312 -7.9375 19.0625 C-8.1586735 15.30255057 -7.82354196 13.28372132 -6 10 C-5.71125 8.824375 -5.4225 7.64875 -5.125 6.4375 C-3.94693974 2.83787143 -3.21965477 1.82447104 0 0 Z " fill="#224BA7" transform="translate(370,225)"/>
<path d="M0 0 C2.34257629 3.83330666 2.87063416 8.01355435 3.5625 12.375 C3.69180908 13.17574951 3.82111816 13.97649902 3.9543457 14.80151367 C5.05125056 21.85103974 5.72702044 28.86840909 6 36 C6.061875 37.49273437 6.061875 37.49273437 6.125 39.015625 C6.50688596 57.63256576 4.25142142 77.38996913 -2 95 C-2.33 95 -2.66 95 -3 95 C-3.09765625 88.84765625 -3.09765625 88.84765625 -3 87 C-2.505 86.505 -2.505 86.505 -2 86 C-1.95615553 84.33391013 -1.9603287 82.66619446 -2 81 C-2 80.01 -2 79.02 -2 78 C-1.01 78.33 -0.02 78.66 1 79 C0.98259766 77.93458984 0.98259766 77.93458984 0.96484375 76.84765625 C0.95582031 75.92855469 0.94679688 75.00945312 0.9375 74.0625 C0.92589844 73.14597656 0.91429687 72.22945313 0.90234375 71.28515625 C1 69 1 69 2 68 C2.24457914 65.1194012 2.4278792 62.26131433 2.5625 59.375 C2.6042334 58.51487305 2.6459668 57.65474609 2.68896484 56.76855469 C3.43246725 40.38722404 2.99235685 24.2441035 0.40234375 8.0234375 C0.03999128 5.30051699 -0.07643519 2.74147546 0 0 Z " fill="#24408A" transform="translate(374,147)"/>
<path d="M0 0 C0.66 0 1.32 0 2 0 C2 1.98 2 3.96 2 6 C3.32 5.67 4.64 5.34 6 5 C6.62529897 10.0247239 7.13012092 14.92528427 7 20 C7.66 19.01 8.32 18.02 9 17 C10 18 10 18 10.3125 21.3125 C10 25 10 25 8 27.4375 C7.01 28.2109375 7.01 28.2109375 6 29 C5.71125 28.0925 5.4225 27.185 5.125 26.25 C4.23468224 23.67797092 3.28505587 21.38653234 2 19 C1.34 19 0.68 19 0 19 C-1.53549231 15.92901538 -1.4426817 12.70419623 -1.71875 9.3125 C-1.87136047 6.97731545 -1.87136047 6.97731545 -3 5 C-1.6875 2.375 -1.6875 2.375 0 0 Z " fill="#214AA5" transform="translate(40,237)"/>
<path d="M0 0 C0.99 0 1.98 0 3 0 C4.05940378 2.87552455 4.83641139 4.98680343 5 8 C3.74009145 10.69825909 1.92181888 12.74742297 0 15 C-0.70674629 16.31252882 -1.39963272 17.63552891 -2 19 C-2.66 19 -3.32 19 -4 19 C-4.495 19.495 -4.99 19.99 -5.5 20.5 C-5.995 20.995 -6.49 21.49 -7 22 C-7.66 22 -8.32 22 -9 22 C-8.34 23.98 -7.68 25.96 -7 28 C-7.66 28.66 -8.32 29.32 -9 30 C-11.56616632 26.15075052 -11.55097676 23.5650696 -12 19 C-11.01 19.33 -10.02 19.66 -9 20 C-9.226875 19.236875 -9.45375 18.47375 -9.6875 17.6875 C-9.790625 16.800625 -9.89375 15.91375 -10 15 C-8.5625 13.1875 -8.5625 13.1875 -7 12 C-6.34 12.33 -5.68 12.66 -5 13 C-4.87625 12.21625 -4.7525 11.4325 -4.625 10.625 C-4 8 -4 8 -2 6 C-1.63557767 4.33985384 -1.30027117 2.67293936 -1 1 C-0.67 0.67 -0.34 0.34 0 0 Z " fill="#224AA6" transform="translate(61,88)"/>
<path d="M0 0 C0.85722656 0.27972656 1.71445313 0.55945313 2.59765625 0.84765625 C3.49355469 1.14542969 4.38945312 1.44320313 5.3125 1.75 C7.18573725 2.31834273 9.06067818 2.88110885 10.9375 3.4375 C11.77539062 3.68886719 12.61328125 3.94023437 13.4765625 4.19921875 C14.08242187 4.38097656 14.68828125 4.56273437 15.3125 4.75 C14.3125 6.75 14.3125 6.75 13.3125 7.75 C13.6425 8.41 13.9725 9.07 14.3125 9.75 C7.38816192 11.48108452 1.69529006 9.54247065 -4.6875 6.75 C-4.6875 6.09 -4.6875 5.43 -4.6875 4.75 C-5.63625 4.62625 -6.585 4.5025 -7.5625 4.375 C-10.6875 3.75 -10.6875 3.75 -12.6875 1.75 C-8.20305932 -1.23962712 -5.08452497 -1.7144514 0 0 Z " fill="#214AA6" transform="translate(140.6875,344.25)"/>
<path d="M0 0 C4.87678248 3.71059536 8.67920825 7.82288729 12.4375 12.625 C13.11111572 13.46840942 13.11111572 13.46840942 13.79833984 14.32885742 C16.29193036 17.58907486 17 18.75535408 17 23 C15.68 23 14.36 23 13 23 C12.19530151 24.70112992 12.19530151 24.70112992 12 27 C12.98357352 29.00812926 13.98308736 31.00854609 15 33 C14.67 33.99 14.34 34.98 14 36 C13.5153125 35.24976563 13.030625 34.49953125 12.53125 33.7265625 C8.53722577 27.62799474 4.43470486 21.85580237 -0.23828125 16.25390625 C-2.04968157 13.93643844 -3.53852925 11.54970436 -5 9 C-1.60085025 10.13304992 -0.94745549 11.12518475 1 14 C2.32 13.34 3.64 12.68 5 12 C6 13 6 13 6.0625 16.5625 C6.041875 17.696875 6.02125 18.83125 6 20 C8.49092811 21.24546405 9.41080733 20.7767578 12 20 C11.525625 19.2575 11.05125 18.515 10.5625 17.75 C9 15 9 15 8.65625 13.1171875 C7.74679023 10.18309707 6.03901377 8.59141135 3.9375 6.375 C0 2.20913884 0 2.20913884 0 0 Z " fill="#1A469C" transform="translate(332,70)"/>
<path d="M0 0 C0.66 0.33 1.32 0.66 2 1 C-2.7348841 7.24945883 -7.80984857 13.11680226 -13.125 18.875 C-13.71039551 19.51703369 -14.29579102 20.15906738 -14.89892578 20.82055664 C-18.3391195 24.50924647 -21.6809357 27.38755685 -26 30 C-26.36923077 25.44615385 -26.36923077 25.44615385 -24.5 23.1875 C-24.005 22.795625 -23.51 22.40375 -23 22 C-23 22.99 -23 23.98 -23 25 C-22.34 25 -21.68 25 -21 25 C-20.67 23.68 -20.34 22.36 -20 21 C-19.34 21 -18.68 21 -18 21 C-17.22157062 17.59437148 -16.90021879 14.49234244 -17 11 C-20.68802044 12.22934015 -21.72356973 13.93859378 -24 17 C-24.99 16.67 -25.98 16.34 -27 16 C-23.50640535 12.40365256 -19.88901869 9.16548033 -16 6 C-15.67 6.99 -15.34 7.98 -15 9 C-14.34 9.33 -13.68 9.66 -13 10 C-13 10.66 -13 11.32 -13 12 C-9.27385847 10.88145414 -9.27385847 10.88145414 -7 8 C-8.32 7.67 -9.64 7.34 -11 7 C-9.824375 6.5359375 -9.824375 6.5359375 -8.625 6.0625 C-4.87110015 4.54306435 -2.81885652 2.9128184 0 0 Z " fill="#1E4190" transform="translate(343,294)"/>
<path d="M0 0 C5.16297293 4.85926864 10.2000681 10.40489975 13 17 C13 17.99 13 18.98 13 20 C11.35 20.66 9.7 21.32 8 22 C5.70986347 18.5647952 5.82157027 17.014669 6 13 C5.34 13 4.68 13 4 13 C3.34 13.66 2.68 14.32 2 15 C1.4225 14.2575 0.845 13.515 0.25 12.75 C-1.72253526 10.33912357 -3.76044282 8.15957299 -6 6 C-5.67 5.34 -5.34 4.68 -5 4 C-4.01 4 -3.02 4 -2 4 C-1.34 2.68 -0.68 1.36 0 0 Z " fill="#214AA6" transform="translate(331,70)"/>
<path d="M0 0 C6.00051293 1.86901222 11.57782224 4.13576751 17.26953125 6.79296875 C21.10439301 8.48820807 24.99875151 9.75370949 29 11 C25.17530099 12.46050559 22.90703544 11.45152603 19.1875 10 C14.20428651 8.23333507 11.0677623 7.42336284 6 9 C5.67 9.66 5.34 10.32 5 11 C6.98 11.66 8.96 12.32 11 13 C11 13.66 11 14.32 11 15 C11.66386719 15.10957031 12.32773438 15.21914063 13.01171875 15.33203125 C22.0719094 16.9588976 22.0719094 16.9588976 26 20 C26.33 20.66 26.66 21.32 27 22 C19.09364771 20.13872289 12.07595128 17.42106084 4.8125 13.8125 C3.86052734 13.34908203 2.90855469 12.88566406 1.92773438 12.40820312 C-0.38578145 11.28050948 -2.69473788 10.14444499 -5 9 C-1.98968256 8.06576355 -1.13349732 7.95550089 2 9 C2 8.34 2 7.68 2 7 C2.66 7 3.32 7 4 7 C4.33 6.01 4.66 5.02 5 4 C2.525 3.01 2.525 3.01 0 2 C0 1.34 0 0.68 0 0 Z " fill="#1F408E" transform="translate(125,336)"/>
<path d="M0 0 C0.99 0 1.98 0 3 0 C4.33743169 6.20081967 4.33743169 6.20081967 2.8125 9.8125 C0.95531464 12.0539306 -0.27923375 13.03456681 -3 14 C-3.66 14 -4.32 14 -5 14 C-5.33 15.65 -5.66 17.3 -6 19 C-7.32 18.67 -8.64 18.34 -10 18 C-10.36450839 10.70983213 -10.36450839 10.70983213 -8.8125 7.6875 C-6.71673811 5.73627342 -4.46131585 4.45154524 -2 3 C-1.34 2.01 -0.68 1.02 0 0 Z " fill="#214AA7" transform="translate(323,305)"/>
<path d="M0 0 C3.12135972 3.73297751 5.74516932 7.65169793 8.25 11.8125 C8.61351563 12.40998047 8.97703125 13.00746094 9.3515625 13.62304688 C10.23747996 15.08014796 11.11918273 16.5398102 12 18 C11.01 18 10.02 18 9 18 C8.67 16.68 8.34 15.36 8 14 C6.35 14.33 4.7 14.66 3 15 C2.67 16.65 2.34 18.3 2 20 C2.66 20 3.32 20 4 20 C4 20.66 4 21.32 4 22 C5.32 21.67 6.64 21.34 8 21 C8 21.99 8 22.98 8 24 C7.34 24 6.68 24 6 24 C7.68807908 28.23084903 7.68807908 28.23084903 11 31 C11 31.66 11 32.32 11 33 C11.66 33.33 12.32 33.66 13 34 C13.625 36.0625 13.625 36.0625 14 38 C10.41063615 34.55015206 7.35247603 31.01089555 4.375 27 C3.24191406 25.4840625 3.24191406 25.4840625 2.0859375 23.9375 C0.24031638 21.33842306 -1.53493515 18.83180321 -3 16 C-2 14 -2 14 1 13 C1.6814823 11.10820797 1.6814823 11.10820797 2 9 C2.33 8.01 2.66 7.02 3 6 C2.01 5.67 1.02 5.34 0 5 C0 3.35 0 1.7 0 0 Z " fill="#1E3E8C" transform="translate(56,266)"/>
<path d="M0 0 C-3.58085329 1.83947943 -7.2540866 3.3750156 -10.9765625 4.90234375 C-13.31539181 5.9673107 -13.31539181 5.9673107 -15 9 C-16.32520503 9.68268138 -17.65812182 10.3507041 -19 11 C-19.33 11.66 -19.66 12.32 -20 13 C-19.01 12.67 -18.02 12.34 -17 12 C-17 12.99 -17 13.98 -17 15 C-15.68 15.33 -14.36 15.66 -13 16 C-14.4117783 16.53394179 -15.82970244 17.05165104 -17.25 17.5625 C-18.03890625 17.85253906 -18.8278125 18.14257812 -19.640625 18.44140625 C-22.19103452 19.04522837 -23.55322229 18.8473932 -26 18 C-24.74458443 15.48916886 -23.49936512 15.12874554 -21 14 C-21.33 13.34 -21.66 12.68 -22 12 C-22.99 12 -23.98 12 -25 12 C-25 11.34 -25 10.68 -25 10 C-27.64 10.33 -30.28 10.66 -33 11 C-29.12262127 8.86286212 -24.98633383 7.55150591 -20.8125 6.125 C-15.97731292 4.45838396 -11.25207227 2.75749131 -6.625 0.5625 C-3 -1 -3 -1 0 0 Z " fill="#20418F" transform="translate(279,339)"/>
<path d="M0 0 C0.66 0.33 1.32 0.66 2 1 C0.68 2.32 -0.64 3.64 -2 5 C-1.34 5.66 -0.68 6.32 0 7 C-0.375 9.125 -0.375 9.125 -1 11 C0.75215106 10.06652642 2.50163563 9.1280468 4.25 8.1875 C5.22453125 7.66542969 6.1990625 7.14335937 7.203125 6.60546875 C9.63355412 5.21034812 11.80787699 3.73804039 14 2 C14 2.99 14 3.98 14 5 C11.64902089 6.6510693 9.36379127 8.08782069 6.875 9.5 C5.87726563 10.08587891 5.87726563 10.08587891 4.859375 10.68359375 C0.98613793 12.93918475 -2.89412448 15.19682618 -7 17 C-7.66 16.67 -8.32 16.34 -9 16 C-8.01 15.67 -7.02 15.34 -6 15 C-5.67 12.69 -5.34 10.38 -5 8 C-7.31 8 -9.62 8 -12 8 C-8.20182235 4.77730382 -4.42608146 2.25479622 0 0 Z " fill="#204695" transform="translate(290,330)"/>
<path d="M0 0 C0.33 0.66 0.66 1.32 1 2 C0 5 0 5 -2 6 C-2 6.99 -2 7.98 -2 9 C-2.70125 9.020625 -3.4025 9.04125 -4.125 9.0625 C-9.00961558 10.65530943 -11.79559815 14.64711495 -14.09375 19.13671875 C-14.72772563 20.51970591 -15.35933213 21.90378217 -15.98828125 23.2890625 C-17 25 -17 25 -19.75 26.625 C-20.86375 27.305625 -20.86375 27.305625 -22 28 C-22.41746608 31.12635209 -22.41746608 31.12635209 -22 34 C-22.99 34 -23.98 34 -25 34 C-27.2236068 35.9254644 -27.2236068 35.9254644 -28 39 C-29.485 39.495 -29.485 39.495 -31 40 C-25.54851866 24.53035137 -11.55003567 11.16143634 0 0 Z " fill="#28468A" transform="translate(101,76)"/>
<path d="M0 0 C0.66 0 1.32 0 2 0 C1.8453125 1.85625 1.8453125 1.85625 1.6875 3.75 C1.61089696 5.94132634 1.61089696 5.94132634 2 8 C4.32069965 10.42416001 4.32069965 10.42416001 7 12 C7.33 12.66 7.66 13.32 8 14 C8.66 14 9.32 14 10 14 C10.33 15.98 10.66 17.96 11 20 C9.35 20.33 7.7 20.66 6 21 C6.33 20.01 6.66 19.02 7 18 C6.0925 17.835 5.185 17.67 4.25 17.5 C0.24218151 15.65023762 -0.65999245 13.96834717 -2.37890625 10.03125 C-3.20945847 7.3149786 -3.05164044 5.62910109 -2 3 C-1.34 2.01 -0.68 1.02 0 0 Z " fill="#214BA7" transform="translate(355,106)"/>
<path d="M0 0 C1.32 0 2.64 0 4 0 C4.66 1.65 5.32 3.3 6 5 C5.34 5.66 4.68 6.32 4 7 C5.98 7.66 7.96 8.32 10 9 C9.1654738 11.50357861 8.20628008 13.66785852 7 16 C3.59155912 14.62090338 2.33262465 13.39436506 0.8125 10.0625 C0.48894531 9.37285156 0.16539062 8.68320313 -0.16796875 7.97265625 C-0.85446708 6.34504283 -1.44139411 4.67581767 -2 3 C-1.34 2.01 -0.68 1.02 0 0 Z " fill="#234AA8" transform="translate(345,93)"/>
<path d="M0 0 C0.80993408 0.00141495 1.61986816 0.0028299 2.4543457 0.00428772 C5.01126994 0.00983242 7.56810276 0.02237418 10.125 0.03515625 C11.87109247 0.04017841 13.61718634 0.04474006 15.36328125 0.04882812 C19.61722209 0.05978365 23.87109561 0.07700931 28.125 0.09765625 C28.125 0.42765625 28.125 0.75765625 28.125 1.09765625 C23.79176008 1.26681096 19.45839523 1.43253202 15.125 1.59765625 C13.90425781 1.64535156 12.68351562 1.69304688 11.42578125 1.7421875 C1.23196309 2.12789954 1.23196309 2.12789954 -3.6875 2.06640625 C-6.7350224 1.72429842 -6.7350224 1.72429842 -7.875 3.09765625 C-10.05938945 3.28438154 -12.24809801 3.42139093 -14.4375 3.53515625 C-18.53695094 3.79319276 -22.41145139 4.06303363 -26.375 5.16015625 C-29.72094841 6.05639243 -32.43362702 6.2697249 -35.875 6.09765625 C-32.28262491 4.00210411 -28.68598627 3.32022546 -24.625 2.53515625 C-23.36171875 2.28636719 -22.0984375 2.03757812 -20.796875 1.78125 C-13.78306852 0.55872397 -7.10360456 -0.04773677 0 0 Z " fill="#1E3E84" transform="translate(193.875,13.90234375)"/>
<path d="M0 0 C3.4117537 3.57108148 3.36304795 6.3963653 3.328125 11.22265625 C3.32625183 11.92337753 3.32437866 12.62409882 3.32244873 13.34605408 C3.31573633 14.82962805 3.30183778 16.31318456 3.28125 17.79663086 C3.25043981 20.03061005 3.24030577 22.26387733 3.234375 24.49804688 C3.11666192 47.18091368 3.11666192 47.18091368 -1 52 C-0.90912109 51.10861328 -0.90912109 51.10861328 -0.81640625 50.19921875 C-0.63768812 48.431284 -0.46220137 46.6630211 -0.2890625 44.89453125 C-0.10768051 43.07826029 0.08352873 41.26291539 0.2890625 39.44921875 C1.68711576 26.28754589 1.05879398 13.15929661 0 0 Z " fill="#23427F" transform="translate(332,164)"/>
<path d="M0 0 C6.61642027 2.81781663 12.3561971 6.50676302 18.125 10.75 C18.80054932 11.24604736 19.47609863 11.74209473 20.17211914 12.25317383 C21.80381826 13.47269841 23.4051695 14.73264137 25 16 C25 16.33 25 16.66 25 17 C19.33029816 16.5371672 15.65684854 15.35293095 11 12 C10.375 9.375 10.375 9.375 10 7 C7.7193293 5.78702351 7.7193293 5.78702351 5 5 C2.1875 3.5 2.1875 3.5 0 2 C0 1.34 0 0.68 0 0 Z " fill="#213E8C" transform="translate(288,35)"/>
<path d="M0 0 C1.27855526 4.1553046 1.83279717 8.23642952 -0.0625 12.25 C-0.371875 12.8275 -0.68125 13.405 -1 14 C-0.67 14.66 -0.34 15.32 0 16 C-0.99 16.66 -1.98 17.32 -3 18 C-3.65554302 19.98116405 -3.65554302 19.98116405 -3.87890625 22.28125 C-3.99556641 23.12300781 -4.11222656 23.96476562 -4.23242188 24.83203125 C-4.34134766 25.71246094 -4.45027344 26.59289062 -4.5625 27.5 C-4.78548516 29.24055843 -5.01562377 30.98021974 -5.25390625 32.71875 C-5.35002197 33.49154297 -5.4461377 34.26433594 -5.54516602 35.06054688 C-6 37 -6 37 -8 39 C-6.84941215 25.58792373 -4.26192193 12.78576578 0 0 Z " fill="#26428C" transform="translate(36,134)"/>
<path d="M0 0 C4.08707624 2.35409457 7.88295209 5.03519049 11.6875 7.8125 C17.28471486 11.86126558 22.98518026 15.59067821 29 19 C28.01 19.33 27.02 19.66 26 20 C23.94921875 18.890625 23.94921875 18.890625 21.6875 17.25 C16.67541742 13.74885318 12.14293552 10.90337287 6 10 C5.938125 9.4225 5.87625 8.845 5.8125 8.25 C4.6865841 5.13207906 2.58205789 3.98619837 0 2 C0 1.34 0 0.68 0 0 Z " fill="#1E3885" transform="translate(96,316)"/>
<path d="M0 0 C0.99 0.33 1.98 0.66 3 1 C1.89205078 2.03833984 1.89205078 2.03833984 0.76171875 3.09765625 C-7.21070773 10.7315059 -13.71398992 18.94220595 -20 28 C-21 25 -21 25 -19.75 21.875 C-18 19 -18 19 -15 18 C-13.62322215 16.13692349 -13.62322215 16.13692349 -12.4375 13.9375 C-11.18359375 11.71484375 -11.18359375 11.71484375 -10 10 C-9.34 10 -8.68 10 -8 10 C-8 9.01 -8 8.02 -8 7 C-6.34928604 5.97388051 -4.68029994 4.97691857 -3 4 C-1.21655822 1.93045153 -1.21655822 1.93045153 0 0 Z " fill="#274086" transform="translate(112,96)"/>
<path d="M0 0 C0 0.66 0 1.32 0 2 C-0.61488281 2.07476562 -1.22976562 2.14953125 -1.86328125 2.2265625 C-4.37475548 2.63512769 -6.62108228 3.08892513 -9 4 C-11.14665717 6.95234447 -11.14665717 6.95234447 -12 10 C-12.66 9.67 -13.32 9.34 -14 9 C-14 8.34 -14 7.68 -14 7 C-15.32 6.67 -16.64 6.34 -18 6 C-17.67 5.67 -17.34 5.34 -17 5 C-19.97 4.505 -19.97 4.505 -23 4 C-23 3.67 -23 3.34 -23 3 C-19.91747911 2.49490361 -16.83386475 1.99682001 -13.75 1.5 C-12.87730469 1.35691406 -12.00460938 1.21382813 -11.10546875 1.06640625 C-10.26113281 0.93105469 -9.41679687 0.79570312 -8.546875 0.65625 C-7.77182617 0.53056641 -6.99677734 0.40488281 -6.19824219 0.27539062 C-4 0 -4 0 0 0 Z " fill="#1D4290" transform="translate(242,351)"/>
<path d="M0 0 C0.66 0.33 1.32 0.66 2 1 C2 1.99 2 2.98 2 4 C-0.46182989 6.2859849 -2.65718831 7.55429177 -6 8 C-6.66 7.67 -7.32 7.34 -8 7 C-8 7.66 -8 8.32 -8 9 C-7.34 9 -6.68 9 -6 9 C-6.33 9.66 -6.66 10.32 -7 11 C-9.64 11 -12.28 11 -15 11 C-10.78910208 6.22764902 -5.76853414 2.71580545 0 0 Z " fill="#203F8B" transform="translate(116,36)"/>
<path d="M0 0 C0.515625 0.391875 1.03125 0.78375 1.5625 1.1875 C1.2325 1.8475 0.9025 2.5075 0.5625 3.1875 C-0.7575 2.8575 -2.0775 2.5275 -3.4375 2.1875 C-3.7675 2.8475 -4.0975 3.5075 -4.4375 4.1875 C-3.7775 4.5175 -3.1175 4.8475 -2.4375 5.1875 C-2.7675 6.1775 -3.0975 7.1675 -3.4375 8.1875 C-5.0875 8.5175 -6.7375 8.8475 -8.4375 9.1875 C-8.4375 8.5275 -8.4375 7.8675 -8.4375 7.1875 C-9.7575 6.5275 -11.0775 5.8675 -12.4375 5.1875 C-9.45081839 1.49806977 -4.71352993 -1.57117664 0 0 Z " fill="#254AA7" transform="translate(338.4375,296.8125)"/>
<path d="M0 0 C1 3 1 3 0 6 C0.66 6.33 1.32 6.66 2 7 C0.35 7.33 -1.3 7.66 -3 8 C-3.1546875 9.3921875 -3.1546875 9.3921875 -3.3125 10.8125 C-4.03483902 14.16152638 -4.59380188 14.8030365 -7 17 C-7 17.99 -7 18.98 -7 20 C-8.96875 21.60546875 -8.96875 21.60546875 -11.5 23.1875 C-12.3353125 23.71730469 -13.170625 24.24710937 -14.03125 24.79296875 C-14.6809375 25.19128906 -15.330625 25.58960938 -16 26 C-14.32556142 22.30190838 -12.03298083 19.10368486 -9.6875 15.8125 C-6.09934523 10.71551713 -2.85451778 5.55124815 0 0 Z " fill="#274189" transform="translate(317,252)"/>
<path d="M0 0 C-4.84060277 3.06242216 -8.29290936 4.53411505 -14 5 C-14 5.66 -14 6.32 -14 7 C-14.928125 7.28875 -15.85625 7.5775 -16.8125 7.875 C-20.09791667 8.8875 -20.09791667 8.8875 -23 11 C-23.99 11 -24.98 11 -26 11 C-26.33 11.66 -26.66 12.32 -27 13 C-27.99 12.34 -28.98 11.68 -30 11 C-26.6277935 9.36915673 -23.2517641 7.74638276 -19.875 6.125 C-18.92367187 5.66480469 -17.97234375 5.20460938 -16.9921875 4.73046875 C-4.19891827 -1.39963942 -4.19891827 -1.39963942 0 0 Z " fill="#223D85" transform="translate(148,24)"/>
<path d="M0 0 C2.23793576 3.35690365 3.65050338 6.8339284 5.125 10.5625 C5.40214844 11.24763672 5.67929687 11.93277344 5.96484375 12.63867188 C8 17.7466133 8 17.7466133 8 20 C6.68 20 5.36 20 4 20 C3.67 17.69 3.34 15.38 3 13 C2.34 13.99 1.68 14.98 1 16 C0 15 0 15 -0.09765625 11.62109375 C-0.09098369 10.22652923 -0.07902532 8.83198257 -0.0625 7.4375 C-0.05798828 6.72658203 -0.05347656 6.01566406 -0.04882812 5.28320312 C-0.03700864 3.52209987 -0.01907263 1.76103964 0 0 Z " fill="#224290" transform="translate(46,242)"/>
<path d="M0 0 C1.98 0.66 3.96 1.32 6 2 C5.54625 2.37125 5.0925 2.7425 4.625 3.125 C2.52970606 5.54264685 1.87986715 7.95430602 1 11 C-0.32 10.67 -1.64 10.34 -3 10 C-3.33 8.68 -3.66 7.36 -4 6 C-3.34 6 -2.68 6 -2 6 C-1.855625 5.195625 -1.71125 4.39125 -1.5625 3.5625 C-1 1 -1 1 0 0 Z " fill="#214BA9" transform="translate(69,79)"/>
<path d="M0 0 C9.00839659 1.62227481 18.00468854 3.30703046 27 5 C27 5.33 27 5.66 27 6 C19.74 6 12.48 6 5 6 C5.33 5.34 5.66 4.68 6 4 C4.68 3.67 3.36 3.34 2 3 C2 2.34 2 1.68 2 1 C1.34 0.67 0.68 0.34 0 0 Z " fill="#1C3E87" transform="translate(154,348)"/>
<path d="M0 0 C1.32 0 2.64 0 4 0 C4.33 0.66 4.66 1.32 5 2 C5.639375 2.28875 6.27875 2.5775 6.9375 2.875 C9.42001234 4.22909764 9.96871397 5.42178493 11 8 C12.32 8 13.64 8 15 8 C15.144375 8.598125 15.28875 9.19625 15.4375 9.8125 C15.8872439 11.56150404 16.42892341 13.28677023 17 15 C14.18763616 13.7080083 12.03181101 12.31751572 9.765625 10.21484375 C8.90517578 9.41916992 8.90517578 9.41916992 8.02734375 8.60742188 C7.44082031 8.05634766 6.85429688 7.50527344 6.25 6.9375 C5.64800781 6.38255859 5.04601562 5.82761719 4.42578125 5.25585938 C2.92768667 3.86137451 1.46087426 2.43343009 0 1 C0 0.67 0 0.34 0 0 Z " fill="#213E89" transform="translate(76,311)"/>
<path d="M0 0 C0.99 0.33 1.98 0.66 3 1 C-0.33374617 8.67825581 -7.45759716 14.96738243 -14 20 C-13.67 18.35 -13.34 16.7 -13 15 C-12.01 15 -11.02 15 -10 15 C-9.8453125 14.1028125 -9.8453125 14.1028125 -9.6875 13.1875 C-8.89363064 10.66155205 -8.04427591 9.65114593 -6 8 C-5.01 7.67 -4.02 7.34 -3 7 C-1.28432339 3.49705129 -1.28432339 3.49705129 0 0 Z " fill="#1E448F" transform="translate(322,281)"/>
<path d="M0 0 C2.0625 0.4375 2.0625 0.4375 4 1 C0.25029335 2.95889539 -3.499816 4.91701863 -7.25 6.875 C-8.31347656 7.43058594 -9.37695312 7.98617187 -10.47265625 8.55859375 C-11.49746094 9.09355469 -12.52226563 9.62851562 -13.578125 10.1796875 C-14.52075195 10.67194824 -15.46337891 11.16420898 -16.43457031 11.67138672 C-18.61411252 12.8001523 -20.80108269 13.90959039 -23 15 C-21.76884358 11.30653074 -20.87119351 11.13909926 -17.5 9.4375 C-14.09741461 7.88380682 -14.09741461 7.88380682 -12 5 C-10.19430974 4.24286722 -8.35439275 3.5659862 -6.5 2.9375 C-2.9728355 1.94590766 -2.9728355 1.94590766 0 0 Z " fill="#223984" transform="translate(134,37)"/>
<path d="M0 0 C1.32 0 2.64 0 4 0 C3.50104522 7.15168515 0.68436185 13.41291281 -2 20 C-3.91503973 13.46885705 -1.67265082 6.45165315 0 0 Z " fill="#284393" transform="translate(346,232)"/>
<path d="M0 0 C6.99507119 5.32233678 11.82676065 11.98437963 17 19 C16.67 19.66 16.34 20.32 16 21 C15.01 20.34 14.02 19.68 13 19 C13 18.34 13 17.68 13 17 C12.360625 16.7525 11.72125 16.505 11.0625 16.25 C10.0415625 15.63125 10.0415625 15.63125 9 15 C8.87625 14.40960938 8.7525 13.81921875 8.625 13.2109375 C7.77018598 10.1870329 6.08657196 8.64156972 3.9375 6.375 C0 2.20913884 0 2.20913884 0 0 Z " fill="#1E3C7E" transform="translate(332,70)"/>
<path d="M0 0 C0.66 1.32 1.32 2.64 2 4 C1.2884375 4.86625 1.2884375 4.86625 0.5625 5.75 C-1.07672854 7.80877742 -1.07672854 7.80877742 -1.40625 9.8125 C-2.17131065 12.63114449 -3.52889661 14.77013068 -5.0625 17.25 C-5.61035156 18.14203125 -6.15820312 19.0340625 -6.72265625 19.953125 C-7.14417969 20.62859375 -7.56570312 21.3040625 -8 22 C-9 20 -9 20 -8.39501953 18.15234375 C-8.06099121 17.42144531 -7.72696289 16.69054687 -7.3828125 15.9375 C-7.02316406 15.14085937 -6.66351563 14.34421875 -6.29296875 13.5234375 C-5.71482422 12.27433594 -5.71482422 12.27433594 -5.125 11 C-4.74730469 10.16726562 -4.36960937 9.33453125 -3.98046875 8.4765625 C-1.39313616 2.78627232 -1.39313616 2.78627232 0 0 Z " fill="#29448A" transform="translate(69,116)"/>
<path d="M0 0 C1.97302469 3.60807756 3.22648197 7.41862216 4.5 11.3125 C4.71269531 11.95123047 4.92539063 12.58996094 5.14453125 13.24804688 C6.53932035 17.47092062 7.80316369 21.71687747 9 26 C6.01058532 24.50529266 5.46221468 21.92442937 4 19 C3.34 18.67 2.68 18.34 2 18 C1.62109375 16.25 1.62109375 16.25 1.4375 14 C1.3653125 13.19691406 1.293125 12.39382812 1.21875 11.56640625 C1.1465625 10.71949219 1.074375 9.87257812 1 9 C0.81723698 7.3119804 0.62998742 5.62443838 0.4375 3.9375 C0.293125 2.638125 0.14875 1.33875 0 0 Z " fill="#24418A" transform="translate(74,218)"/>
<path d="M0 0 C2.31242092 2.16323247 4.0156396 4.37647804 5.6875 7.0625 C6.34298828 8.10083984 6.34298828 8.10083984 7.01171875 9.16015625 C8 11 8 11 8 13 C7.34 13 6.68 13 6 13 C6 12.34 6 11.68 6 11 C4.865625 10.87625 3.73125 10.7525 2.5625 10.625 C0.7990625 10.315625 0.7990625 10.315625 -1 10 C-1.33 9.34 -1.66 8.68 -2 8 C-1.01 7.34 -0.02 6.68 1 6 C0.67 4.02 0.34 2.04 0 0 Z " fill="#1C3F8B" transform="translate(349,91)"/>
<path d="M0 0 C1.231394 2.46278801 1.07159196 4.2795055 1 7 C0.34 7 -0.32 7 -1 7 C-1 8.32 -1 9.64 -1 11 C-1.66 11 -2.32 11 -3 11 C-3 11.66 -3 12.32 -3 13 C-3.66 13 -4.32 13 -5 13 C-5.33 14.32 -5.66 15.64 -6 17 C-6.66 17 -7.32 17 -8 17 C-6.3341708 10.83643195 -3.12194714 5.51740344 0 0 Z " fill="#25438D" transform="translate(51,101)"/>
<path d="M0 0 C0.66 0.33 1.32 0.66 2 1 C1.505 1.61875 1.01 2.2375 0.5 2.875 C-1.19222773 4.83880904 -1.19222773 4.83880904 -1 7 C-0.01 7.33 0.98 7.66 2 8 C1.34 9.32 0.68 10.64 0 12 C-0.61875 11.525625 -1.2375 11.05125 -1.875 10.5625 C-3.90705546 8.97582559 -3.90705546 8.97582559 -6 8 C-5.65120368 4.74456771 -4.97866739 3.98126893 -2.4375 1.75 C-1.633125 1.1725 -0.82875 0.595 0 0 Z " fill="#234AA7" transform="translate(91,55)"/>
<path d="M0 0 C0.66 0 1.32 0 2 0 C0.56347895 4.91441412 -1.54159615 9.00238358 -4.125 13.375 C-4.49753906 14.01566406 -4.87007813 14.65632813 -5.25390625 15.31640625 C-6.16434002 16.88048477 -7.08148191 18.44065534 -8 20 C-9 17 -9 17 -8 14 C-7.525625 13.566875 -7.05125 13.13375 -6.5625 12.6875 C-4.42228438 10.37606713 -3.87389011 7.99619465 -3 5 C-2.67 4.01 -2.34 3.02 -2 2 C-1.34 2 -0.68 2 0 2 C0 1.34 0 0.68 0 0 Z " fill="#26438B" transform="translate(341,252)"/>
<path d="M0 0 C1.32435978 3.97307934 0.18129186 6.80974568 -0.9375 10.6875 C-1.13279297 11.38939453 -1.32808594 12.09128906 -1.52929688 12.81445312 C-2.01199136 14.54508944 -2.50500846 16.27284066 -3 18 C-3.33 18 -3.66 18 -4 18 C-4 15.03 -4 12.06 -4 9 C-3.34 9 -2.68 9 -2 9 C-2.33 7.68 -2.66 6.36 -3 5 C-3.99 5 -4.98 5 -6 5 C-5.67 4.01 -5.34 3.02 -5 2 C-2.4375 0.8125 -2.4375 0.8125 0 0 Z " fill="#25428C" transform="translate(45,137)"/>
<path d="M0 0 C2.0625 0.4375 2.0625 0.4375 4 1 C2.40629329 2.36646148 0.79967018 3.71787166 -0.8125 5.0625 C-2.15248047 6.19365234 -2.15248047 6.19365234 -3.51953125 7.34765625 C-4.74736328 8.16556641 -4.74736328 8.16556641 -6 9 C-6.99 8.67 -7.98 8.34 -9 8 C-8.67 6.68 -8.34 5.36 -8 4 C-6.02 4 -4.04 4 -2 4 C-1.67 3.01 -1.34 2.02 -1 1 C-0.67 0.67 -0.34 0.34 0 0 Z " fill="#263C87" transform="translate(299,306)"/>
<path d="M0 0 C2.5654594 2.5654594 2.54046087 4.47686668 3 8 C3.66 8 4.32 8 5 8 C5.33 10.31 5.66 12.62 6 15 C0.12640449 9.32219101 0.12640449 9.32219101 -0.1953125 5.95703125 C-0.13020833 3.97135417 -0.06510417 1.98567708 0 0 Z " fill="#234090" transform="translate(310,108)"/>
<path d="M0 0 C-0.29899215 3.58790575 -0.76986601 4.78166776 -3.4375 7.3125 C-6 9 -6 9 -8 9 C-7.53918323 4.85264908 -4.48412936 0 0 0 Z " fill="#1F4BA4" transform="translate(80,68)"/>
<path d="M0 0 C2.99876322 2.80319171 5.16322727 5.59434917 7.25 9.125 C8.03117187 10.42824219 8.03117187 10.42824219 8.828125 11.7578125 C10 14 10 14 10 16 C8.02 16 6.04 16 4 16 C3.67 15.34 3.34 14.68 3 14 C4.32 14.33 5.64 14.66 7 15 C6.57847656 14.25234375 6.15695312 13.5046875 5.72265625 12.734375 C5.17480469 11.74953125 4.62695312 10.7646875 4.0625 9.75 C3.51722656 8.77546875 2.97195313 7.8009375 2.41015625 6.796875 C1.23389165 4.46389591 0.47898309 2.54649238 0 0 Z " fill="#1F3F86" transform="translate(328,102)"/>
<path d="M0 0 C2.64 0.33 5.28 0.66 8 1 C8 2.32 8 3.64 8 5 C9.62339805 6.70884005 11.29319053 8.37446717 13 10 C13.70816299 11.311765 14.38443959 12.64231535 15 14 C12.66317451 12.00396156 10.33030636 10.0036279 8 8 C7.25878906 7.36578125 6.51757812 6.7315625 5.75390625 6.078125 C5.03074219 5.45421875 4.30757813 4.8303125 3.5625 4.1875 C2.88316406 3.60355469 2.20382812 3.01960938 1.50390625 2.41796875 C1.00761719 1.95003906 0.51132812 1.48210938 0 1 C0 0.67 0 0.34 0 0 Z " fill="#213A88" transform="translate(308,61)"/>
<path d="M0 0 C14.78132118 -0.3690205 14.78132118 -0.3690205 21 2 C20.34 2.66 19.68 3.32 19 4 C16.42578125 3.79296875 16.42578125 3.79296875 13.3125 3.1875 C12.24128906 2.98769531 11.17007813 2.78789062 10.06640625 2.58203125 C9.05449219 2.38996094 8.04257813 2.19789062 7 2 C4.66935931 1.63935177 2.3368109 1.31865603 0 1 C0 0.67 0 0.34 0 0 Z " fill="#163A84" transform="translate(225,25)"/>
<path d="M0 0 C5.852795 0.51482919 11.3297637 1.45357192 17 3 C17 3.33 17 3.66 17 4 C16.030625 3.979375 15.06125 3.95875 14.0625 3.9375 C11.12534105 3.64381501 11.12534105 3.64381501 10 5 C8.33382885 5.04063832 6.66611905 5.042721 5 5 C5 4.34 5 3.68 5 3 C2.525 2.01 2.525 2.01 0 1 C0 0.67 0 0.34 0 0 Z " fill="#1C408C" transform="translate(236,17)"/>
<path d="M0 0 C5.68502535 1.64566523 10.76681636 4.29032784 16 7 C15.67 7.99 15.34 8.98 15 10 C15 9.34 15 8.68 15 8 C14.22914063 7.79503906 13.45828125 7.59007812 12.6640625 7.37890625 C11.66117187 7.10949219 10.65828125 6.84007812 9.625 6.5625 C8.62726563 6.29566406 7.62953125 6.02882813 6.6015625 5.75390625 C4 5 4 5 2 4 C2 3.34 2 2.68 2 2 C1.34 2 0.68 2 0 2 C0 1.34 0 0.68 0 0 Z " fill="#28418A" transform="translate(262,49)"/>
<path d="M0 0 C1.32 1.32 2.64 2.64 4 4 C3.01 4 2.02 4 1 4 C1.01160156 4.56847656 1.02320313 5.13695313 1.03515625 5.72265625 C1.09223194 10.60670484 0.81956772 15.18503965 0 20 C-0.33 20 -0.66 20 -1 20 C-1.02722517 17.79173622 -1.04649729 15.58337362 -1.0625 13.375 C-1.07410156 12.14523438 -1.08570313 10.91546875 -1.09765625 9.6484375 C-1.00863924 6.32276209 -0.63686087 3.25952412 0 0 Z " fill="#244183" transform="translate(312,83)"/>
<path d="M0 0 C2.05078125 0.03255208 4.1015625 0.06510417 6.15234375 0.09765625 C5.55421875 0.36578125 4.95609375 0.63390625 4.33984375 0.91015625 C2.06067367 2.14742001 0.75160122 3.06223765 -0.84765625 5.09765625 C-1.20979193 7.610553 -1.20979193 7.610553 -1.03515625 10.28515625 C-1.00808594 11.18621094 -0.98101562 12.08726563 -0.953125 13.015625 C-0.91832031 13.70269531 -0.88351563 14.38976563 -0.84765625 15.09765625 C-1.50765625 15.09765625 -2.16765625 15.09765625 -2.84765625 15.09765625 C-2.87451037 12.78521833 -2.89398466 10.47269355 -2.91015625 8.16015625 C-2.92175781 6.87238281 -2.93335938 5.58460937 -2.9453125 4.2578125 C-2.81833933 0.14896085 -2.81833933 0.14896085 0 0 Z " fill="#22449B" transform="translate(165.84765625,41.90234375)"/>
<path d="M0 0 C0.391875 0.474375 0.78375 0.94875 1.1875 1.4375 C3.40808374 3.35179633 5.13375709 3.61266988 8 4 C7.01 4.495 7.01 4.495 6 5 C6.350625 5.5775 6.70125 6.155 7.0625 6.75 C8.16577711 9.39786506 7.80156509 10.33185326 7 13 C5.82786955 11.21190303 4.66244474 9.41940875 3.5 7.625 C2.8503125 6.62726563 2.200625 5.62953125 1.53125 4.6015625 C0 2 0 2 0 0 Z " fill="#20438A" transform="translate(72,267)"/>
<path d="M0 0 C1.37095624 3.69037278 0.60010967 5.70883835 -0.9375 9.25 C-1.31777344 10.14203125 -1.69804687 11.0340625 -2.08984375 11.953125 C-2.39019531 12.62859375 -2.69054687 13.3040625 -3 14 C-3.14695312 13.37867188 -3.29390625 12.75734375 -3.4453125 12.1171875 C-3.93314158 9.99695794 -3.93314158 9.99695794 -4.875 8.125 C-5.03542705 5.39774018 -4.27953351 4.81044022 -2.5625 2.75 C-1.716875 1.8425 -0.87125 0.935 0 0 Z " fill="#24418F" transform="translate(370,242)"/>
<path d="M0 0 C0.33 0 0.66 0 1 0 C2.12405116 5.92681519 2.15787577 8.65590254 -1 14 C-1.185625 14.7425 -1.37125 15.485 -1.5625 16.25 C-2 18 -2 18 -4 20 C-2.82144268 13.29225357 -1.52351686 6.63818061 0 0 Z " fill="#234289" transform="translate(366,219)"/>
<path d="M0 0 C0.66 0 1.32 0 2 0 C2 0.66 2 1.32 2 2 C2.99 2 3.98 2 5 2 C4.01 5.3 3.02 8.6 2 12 C1.34 10.68 0.68 9.36 0 8 C0.66 7.01 1.32 6.02 2 5 C1.01 4.67 0.02 4.34 -1 4 C-0.67 2.68 -0.34 1.36 0 0 Z " fill="#254396" transform="translate(74,145)"/>
<path d="M0 0 C2.0625 0.375 2.0625 0.375 4 1 C4.66 0.67 5.32 0.34 6 0 C6.33 1.32 6.66 2.64 7 4 C2.94568308 5.15837626 0.78187881 4.83691257 -3 3 C-1.75 1.4375 -1.75 1.4375 0 0 Z " fill="#234CA8" transform="translate(252,350)"/>
<path d="M0 0 C9.47058824 5.41176471 9.47058824 5.41176471 11 10 C9.68 10.33 8.36 10.66 7 11 C6.6596875 9.88625 6.6596875 9.88625 6.3125 8.75 C4.75626034 5.48930737 2.836696 4.16484695 0 2 C0 1.34 0 0.68 0 0 Z " fill="#1C408D" transform="translate(96,316)"/>
<path d="M0 0 C3.59478807 3.32850747 6.22364768 6.98971331 9 11 C8.01 11.495 8.01 11.495 7 12 C6.2575 11.175 5.515 10.35 4.75 9.5 C2.12612615 6.55155147 2.12612615 6.55155147 -2 7 C-1.34 4.69 -0.68 2.38 0 0 Z " fill="#213F84" transform="translate(96,265)"/>
<path d="M0 0 C0.66 0 1.32 0 2 0 C2.25394531 0.80824219 2.50789063 1.61648437 2.76953125 2.44921875 C3.11371094 3.51785156 3.45789062 4.58648437 3.8125 5.6875 C4.14894531 6.74324219 4.48539063 7.79898438 4.83203125 8.88671875 C5.94666251 11.85782615 7.27948798 14.34281954 9 17 C8.34 17.66 7.68 18.32 7 19 C6.20688633 17.27149655 5.4155741 15.54216646 4.625 13.8125 C4.18414062 12.84957031 3.74328125 11.88664063 3.2890625 10.89453125 C0 3.50909091 0 3.50909091 0 0 Z " fill="#253F83" transform="translate(59,239)"/>
<path d="M0 0 C1.3721192 3.70472184 0.4863484 5.44927883 -1 9 C-1.3813074 11.32597511 -1.72460254 13.65912158 -2 16 C-2.99 16 -3.98 16 -5 16 C-3.90301833 10.30860098 -2.45946923 5.25432063 0 0 Z " fill="#27428E" transform="translate(42,118)"/>
<path d="M0 0 C6.51791392 -0.3540919 11.17521449 -0.03901852 17 3 C17 3.33 17 3.66 17 4 C11.147205 3.48517081 5.6702363 2.54642808 0 1 C0 0.67 0 0.34 0 0 Z " fill="#223E85" transform="translate(158,359)"/>
<path d="M0 0 C0.66 0 1.32 0 2 0 C2 0.66 2 1.32 2 2 C2.66 2 3.32 2 4 2 C4.12375 3.134375 4.2475 4.26875 4.375 5.4375 C4.684375 7.2009375 4.684375 7.2009375 5 9 C5.66 9.33 6.32 9.66 7 10 C6.34 11.32 5.68 12.64 5 14 C4.16235732 12.04350603 3.33000941 10.08474444 2.5 8.125 C2.0359375 7.03445312 1.571875 5.94390625 1.09375 4.8203125 C0 2 0 2 0 0 Z " fill="#294690" transform="translate(323,136)"/>
<path d="M0 0 C1.98 0.495 1.98 0.495 4 1 C4 1.66 4 2.32 4 3 C5.0725 3.28875 6.145 3.5775 7.25 3.875 C10.09400364 4.72820109 12.43508983 5.5636503 15 7 C15 7.66 15 8.32 15 9 C9.31497465 7.35433477 4.23318364 4.70967216 -1 2 C-0.67 1.34 -0.34 0.68 0 0 Z " fill="#213885" transform="translate(272,37)"/>
<path d="M0 0 C0.66 0.66 1.32 1.32 2 2 C-0.28819146 3.50554634 -2.58021169 5.00457043 -4.875 6.5 C-5.85146484 7.14388672 -5.85146484 7.14388672 -6.84765625 7.80078125 C-11.7734375 11 -11.7734375 11 -14 11 C-14 10.34 -14 9.68 -14 9 C-13.24074219 8.60167969 -12.48148437 8.20335937 -11.69921875 7.79296875 C-10.70535156 7.26316406 -9.71148437 6.73335938 -8.6875 6.1875 C-7.70136719 5.66542969 -6.71523438 5.14335937 -5.69921875 4.60546875 C-3.38334932 3.2280124 -1.76388999 2.00469409 0 0 Z " fill="#223F86" transform="translate(303,332)"/>
<path d="M0 0 C0.33 0 0.66 0 1 0 C0.91283383 2.58492789 0.80594881 5.16647502 0.6875 7.75 C0.66494141 8.47960937 0.64238281 9.20921875 0.61914062 9.9609375 C0.40690219 14.20570619 0.02929201 16.913858 -3 20 C-2.45136137 13.2142064 -1.45732062 6.64990964 0 0 Z " fill="#294591" transform="translate(334,196)"/>
<path d="M0 0 C0.99 0 1.98 0 3 0 C1.55049545 3.7910119 -0.15172566 7.3874638 -2 11 C-2.90786761 7.70897992 -3.59440475 5.18880951 -2 2 C-1.34 2 -0.68 2 0 2 C0 1.34 0 0.68 0 0 Z " fill="#264296" transform="translate(85,129)"/>
<path d="M0 0 C1 2 1 2 0.22265625 4.6015625 C-0.16019531 5.59929687 -0.54304688 6.59703125 -0.9375 7.625 C-1.50791016 9.12933594 -1.50791016 9.12933594 -2.08984375 10.6640625 C-2.39019531 11.43492187 -2.69054688 12.20578125 -3 13 C-4.86503979 9.82873384 -5.04145386 9.21857488 -4.3125 5.375 C-3 2 -3 2 0 0 Z " fill="#21448E" transform="translate(50,124)"/>
<path d="M0 0 C0.66 0 1.32 0 2 0 C2.33 1.65 2.66 3.3 3 5 C2.01 5 1.02 5 0 5 C-2.2236068 6.9254644 -2.2236068 6.9254644 -3 10 C-3.99 10.33 -4.98 10.66 -6 11 C-4.54997977 6.89160936 -2.6020866 3.49655387 0 0 Z " fill="#204087" transform="translate(76,105)"/>
<path d="M0 0 C0.66 0.33 1.32 0.66 2 1 C-0.14800843 3.36280927 -2.16680467 4.58340234 -5 6 C-5.33 6.66 -5.66 7.32 -6 8 C-7.98 8 -9.96 8 -12 8 C-9.72254211 5.51017465 -7.37664762 3.89631003 -4.4375 2.25 C-3.65246094 1.80140625 -2.86742187 1.3528125 -2.05859375 0.890625 C-1.37925781 0.59671875 -0.69992188 0.3028125 0 0 Z " fill="#29428F" transform="translate(133,54)"/>
<path d="M0 0 C1.21236328 0.01353516 1.21236328 0.01353516 2.44921875 0.02734375 C3.37154297 0.04474609 3.37154297 0.04474609 4.3125 0.0625 C0.71198847 2.46284102 -2.64894535 4.38437705 -7.0625 3.6875 C-7.59875 3.48125 -8.135 3.275 -8.6875 3.0625 C-6.88341097 -0.54567807 -3.60175697 -0.05219938 0 0 Z " fill="#253E90" transform="translate(261.6875,353.9375)"/>
<path d="M0 0 C0.66 0 1.32 0 2 0 C2.33 0.99 2.66 1.98 3 3 C2.67 3.66 2.34 4.32 2 5 C2.66 5 3.32 5 4 5 C3.67 5.99 3.34 6.98 3 8 C2.01 8 1.02 8 0 8 C-0.66 6.02 -1.32 4.04 -2 2 C-1.34 1.34 -0.68 0.68 0 0 Z " fill="#244CA8" transform="translate(307,321)"/>
<path d="M0 0 C1.93938819 2.90908228 2.96774957 5.40862379 4.125 8.6875 C4.47820312 9.68136719 4.83140625 10.67523438 5.1953125 11.69921875 C5.46085937 12.45847656 5.72640625 13.21773437 6 14 C5.01 14.495 5.01 14.495 4 15 C0.89809455 10.34714182 -0.33846504 5.58467324 0 0 Z " fill="#213884" transform="translate(343,128)"/>
<path d="M0 0 C0 0.66 0 1.32 0 2 C-2.08047297 2.5321441 -4.16452293 3.05031786 -6.25 3.5625 C-7.41015625 3.85253906 -8.5703125 4.14257812 -9.765625 4.44140625 C-12.72090983 4.95179964 -14.24434101 5.02996165 -17 4 C-14.06030946 2.04020631 -12.44977414 1.51679931 -9.0625 0.875 C-8.20785156 0.70742188 -7.35320312 0.53984375 -6.47265625 0.3671875 C-4 0 -4 0 0 0 Z " fill="#17357D" transform="translate(175,25)"/>
<path d="M0 0 C0 0.99 0 1.98 0 3 C-0.99 3 -1.98 3 -3 3 C-3 3.66 -3 4.32 -3 5 C-4.32 4.34 -5.64 3.68 -7 3 C-7 2.34 -7 1.68 -7 1 C-3.375 -1.125 -3.375 -1.125 0 0 Z " fill="#1F4AAA" transform="translate(109,282)"/>
<path d="M0 0 C0.33 0.99 0.66 1.98 1 3 C0.0409375 3.1546875 0.0409375 3.1546875 -0.9375 3.3125 C-1.618125 3.539375 -2.29875 3.76625 -3 4 C-3.33 4.99 -3.66 5.98 -4 7 C-5.65 7 -7.3 7 -9 7 C-6.24479785 4.04070881 -3.53372712 1.96318174 0 0 Z " fill="#183D89" transform="translate(301,323)"/>
<path d="M0 0 C2 2 2 2 2.125 5.625 C2.08375 6.73875 2.0425 7.8525 2 9 C2.66 9.33 3.32 9.66 4 10 C2.68 10.33 1.36 10.66 0 11 C-1.05404945 7.01803543 -0.84098656 4.01804691 0 0 Z " fill="#25479B" transform="translate(357,104)"/>
<path d="M0 0 C0.66 0.33 1.32 0.66 2 1 C0.875 3.4375 0.875 3.4375 -1 6 C-4.1875 6.8125 -4.1875 6.8125 -7 7 C-4.66666667 4.66666667 -2.33333333 2.33333333 0 0 Z " fill="#24418A" transform="translate(109,69)"/>
<path d="M0 0 C-0.33 0.99 -0.66 1.98 -1 3 C-1.66 2.67 -2.32 2.34 -3 2 C-3 2.66 -3 3.32 -3 4 C-4.65 4.33 -6.3 4.66 -8 5 C-8 4.01 -8 3.02 -8 2 C-4.77208445 -0.1519437 -3.71599191 -0.20086443 0 0 Z " fill="#274AAB" transform="translate(106,50)"/>
<path d="M0 0 C-0.66 0 -1.32 0 -2 0 C-2.66 1.32 -3.32 2.64 -4 4 C-5.98 3.34 -7.96 2.68 -10 2 C-6.86358686 -1.13641314 -4.14410883 -1.38136961 0 0 Z " fill="#29489B" transform="translate(145,52)"/>
<path d="M0 0 C0.33 1.32 0.66 2.64 1 4 C1.66 4.33 2.32 4.66 3 5 C0.36 5.66 -2.28 6.32 -5 7 C-3.35 4.69 -1.7 2.38 0 0 Z " fill="#244092" transform="translate(332,293)"/>
<path d="M0 0 C4.85963179 0.60745397 8.7405518 2.72758967 13 5 C13 5.33 13 5.66 13 6 C8.21193122 6.74813575 5.43289751 4.69491132 1.57421875 2.19140625 C1.05472656 1.79824219 0.53523438 1.40507812 0 1 C0 0.67 0 0.34 0 0 Z " fill="#203A81" transform="translate(270,27)"/>
<path d="M0 0 C0.99 0.33 1.98 0.66 3 1 C3 2.32 3 3.64 3 5 C1.02 5.66 -0.96 6.32 -3 7 C-3.33 6.34 -3.66 5.68 -4 5 C-3.01 4.67 -2.02 4.34 -1 4 C-0.26676204 1.98491642 -0.26676204 1.98491642 0 0 Z " fill="#2549A8" transform="translate(90,313)"/>
<path d="M0 0 C0.33 0.66 0.66 1.32 1 2 C0 5 0 5 -2 6 C-2 6.99 -2 7.98 -2 9 C-2.99 8.34 -3.98 7.68 -5 7 C-3.70700306 4.11562221 -2.34058637 2.12780579 0 0 Z " fill="#2A4C97" transform="translate(101,76)"/>
<path d="M0 0 C0.66 0.33 1.32 0.66 2 1 C0.10595266 4.34243648 -0.94091591 4.97997149 -4.6875 6.25 C-6.3271875 6.62125 -6.3271875 6.62125 -8 7 C-5.42215154 4.35247996 -3.08351902 2.05567935 0 0 Z " fill="#2A4389" transform="translate(119,62)"/>
<path d="M0 0 C2.31 0.33 4.62 0.66 7 1 C7.66 2.98 8.32 4.96 9 7 C7.4972763 6.02501855 5.99788037 5.04490611 4.5 4.0625 C3.6646875 3.51722656 2.829375 2.97195312 1.96875 2.41015625 C1.3190625 1.94480469 0.669375 1.47945312 0 1 C0 0.67 0 0.34 0 0 Z " fill="#153987" transform="translate(299,54)"/>
<path d="M0 0 C0.33 0 0.66 0 1 0 C1.36923077 4.55384615 1.36923077 4.55384615 -0.5 6.8125 C-0.995 7.204375 -1.49 7.59625 -2 8 C-2 7.34 -2 6.68 -2 6 C-2.66 5.67 -3.32 5.34 -4 5 C-2 2 -2 2 0 0 Z " fill="#244BA8" transform="translate(94,317)"/>
<path d="M0 0 C2 2 2 2 2.125 5.125 C2.08375 6.07375 2.0425 7.0225 2 8 C1.34 7.67 0.68 7.34 0 7 C0 6.34 0 5.68 0 5 C-0.99 4.67 -1.98 4.34 -3 4 C-2.67 3.01 -2.34 2.02 -2 1 C-1.34 0.67 -0.68 0.34 0 0 Z " fill="#224BAB" transform="translate(84,310)"/>
<path d="M0 0 C0.99 1.32 1.98 2.64 3 4 C2.67 4.66 2.34 5.32 2 6 C0.35 6 -1.3 6 -3 6 C-1.125 1.125 -1.125 1.125 0 0 Z " fill="#154094" transform="translate(343,278)"/>
<path d="M0 0 C0.66 0.33 1.32 0.66 2 1 C2 1.99 2 2.98 2 4 C1.34 4 0.68 4 0 4 C0 4.66 0 5.32 0 6 C-0.66 6 -1.32 6 -2 6 C-2.66 4.68 -3.32 3.36 -4 2 C-2.125 0.9375 -2.125 0.9375 0 0 Z " fill="#2949AA" transform="translate(348,280)"/>
<path d="M0 0 C2.97550031 3.0684847 3.96474513 4.46236331 4.25 8.8125 C4.1675 9.864375 4.085 10.91625 4 12 C2.09681116 9.14521674 1.5380901 7.58058692 0.875 4.3125 C0.70742188 3.50425781 0.53984375 2.69601563 0.3671875 1.86328125 C0.24601562 1.24839844 0.12484375 0.63351563 0 0 Z " fill="#223E86" transform="translate(35,239)"/>
<path d="M0 0 C1.5972064 2.3958096 2.69255912 4.36637365 3.75 7 C4.03359375 7.680625 4.3171875 8.36125 4.609375 9.0625 C4.73828125 9.701875 4.8671875 10.34125 5 11 C4.01 12.485 4.01 12.485 3 14 C2.49307308 12.4188708 1.99473557 10.83498617 1.5 9.25 C1.2215625 8.36828125 0.943125 7.4865625 0.65625 6.578125 C0 4 0 4 0 0 Z " fill="#264286" transform="translate(55,225)"/>
<path d="M0 0 C2.80045623 3.14591933 3.35261589 5.067064 3.1875 9.25 C3.16042969 10.14203125 3.13335937 11.0340625 3.10546875 11.953125 C3.07066406 12.62859375 3.03585937 13.3040625 3 14 C2.67 14 2.34 14 2 14 C-0.29612756 4.58997722 -0.29612756 4.58997722 0 0 Z " fill="#284394" transform="translate(332,164)"/>
<path d="M0 0 C3.04105488 1.52052744 4.71466648 2.48121179 6.375 5.5 C7 8 7 8 6 11 C4.9944239 9.54550599 3.99569565 8.08627557 3 6.625 C2.443125 5.81289062 1.88625 5.00078125 1.3125 4.1640625 C0 2 0 2 0 0 Z " fill="#213C84" transform="translate(340,95)"/>
<path d="M0 0 C1.32 0.66 2.64 1.32 4 2 C3.360625 2.61875 2.72125 3.2375 2.0625 3.875 C-0.03883584 5.82597612 -0.03883584 5.82597612 -1 8 C-1.66 8 -2.32 8 -3 8 C-2.67 6.02 -2.34 4.04 -2 2 C-1.34 2 -0.68 2 0 2 C0 1.34 0 0.68 0 0 Z " fill="#174BA1" transform="translate(71,80)"/>
<path d="M0 0 C-0.66 0 -1.32 0 -2 0 C-2.66 1.32 -3.32 2.64 -4 4 C-4.33 3.34 -4.66 2.68 -5 2 C-6.65 2 -8.3 2 -10 2 C-6.19832777 -0.53444815 -4.31588991 -1.33941411 0 0 Z " fill="#1B3E8A" transform="translate(158,21)"/>
<path d="M0 0 C1.60080151 4.00200378 0.29279692 7.04556236 -1 11 C-1.66 10.34 -2.32 9.68 -3 9 C-2.625 5.875 -2.625 5.875 -2 3 C-1.34 3 -0.68 3 0 3 C0 2.01 0 1.02 0 0 Z " fill="#1A4088" transform="translate(352,221)"/>
<path d="M0 0 C0.66 0.33 1.32 0.66 2 1 C-0.31 3.64 -2.62 6.28 -5 9 C-5.33 8.34 -5.66 7.68 -6 7 C-4.78519695 3.57646413 -2.98228777 1.98819185 0 0 Z " fill="#20397D" transform="translate(76,82)"/>
<path d="M0 0 C0.66 0.66 1.32 1.32 2 2 C-2.455 4.97 -2.455 4.97 -7 8 C-4.9957983 3.9915966 -3.50944037 2.58590343 0 0 Z " fill="#234394" transform="translate(308,270)"/>
<path d="M0 0 C1.5625 1.25 1.5625 1.25 3 3 C2.6875 5.1875 2.6875 5.1875 2 7 C1.34 7 0.68 7 0 7 C-1.125 2.25 -1.125 2.25 0 0 Z " fill="#224AAC" transform="translate(356,258)"/>
<path d="M0 0 C0.99 0 1.98 0 3 0 C2.67 1.65 2.34 3.3 2 5 C1.01 5 0.02 5 -1 5 C-0.67 3.35 -0.34 1.7 0 0 Z " fill="#1B4D9B" transform="translate(100,102)"/>
<path d="M0 0 C1.98 0 3.96 0 6 0 C5.67 1.32 5.34 2.64 5 4 C4.01 4 3.02 4 2 4 C1.34 2.68 0.68 1.36 0 0 Z " fill="#184CA2" transform="translate(87,62)"/>
<path d="M0 0 C0.33 0.66 0.66 1.32 1 2 C1.66 2 2.32 2 3 2 C2.67 2.66 2.34 3.32 2 4 C-0.64 4 -3.28 4 -6 4 C-3.94766315 1.7522025 -2.99332739 0.9977758 0 0 Z " fill="#254497" transform="translate(107,43)"/>
<path d="M0 0 C5.875 3.75 5.875 3.75 7 6 C4.0625 5.25 4.0625 5.25 1 4 C0.125 1.875 0.125 1.875 0 0 Z " fill="#203888" transform="translate(87,308)"/>
<path d="M0 0 C0.33 0 0.66 0 1 0 C1 2.97 1 5.94 1 9 C0.01 9.33 -0.98 9.66 -2 10 C-1.34 6.7 -0.68 3.4 0 0 Z " fill="#2A418E" transform="translate(328,224)"/>
<path d="M0 0 C1.32 0.33 2.64 0.66 4 1 C4 2.98 4 4.96 4 7 C3.01 7.495 3.01 7.495 2 8 C1.34 5.36 0.68 2.72 0 0 Z " fill="#234894" transform="translate(371,225)"/>
<path d="M0 0 C0.99 0 1.98 0 3 0 C1.60667426 3.36720387 0.0210714 4.9859524 -3 7 C-2.67 5.68 -2.34 4.36 -2 3 C-1.34 3 -0.68 3 0 3 C0 2.01 0 1.02 0 0 Z " fill="#274597" transform="translate(104,103)"/>
<path d="M0 0 C0.66 0 1.32 0 2 0 C4.6875 2.8125 4.6875 2.8125 7 6 C6.67 6.99 6.34 7.98 6 9 C4.99712471 7.68969568 3.99777175 6.37669473 3 5.0625 C2.443125 4.33160156 1.88625 3.60070312 1.3125 2.84765625 C0 1 0 1 0 0 Z " fill="#1E397B" transform="translate(333,86)"/>
<path d="M0 0 C1.6266848 0.28211877 3.25132896 0.57602375 4.875 0.875 C5.77992188 1.03742187 6.68484375 1.19984375 7.6171875 1.3671875 C10 2 10 2 12 4 C10.37399059 3.9129995 8.74910322 3.8048219 7.125 3.6875 C6.22007812 3.62949219 5.31515625 3.57148438 4.3828125 3.51171875 C2 3 2 3 0 0 Z " fill="#1C377F" transform="translate(253,21)"/>
<path d="M0 0 C0 0.66 0 1.32 0 2 C-2.31 2.66 -4.62 3.32 -7 4 C-7 3.01 -7 2.02 -7 1 C-4.53721199 -0.231394 -2.7204945 -0.07159196 0 0 Z " fill="#1A49A0" transform="translate(163,20)"/>
</svg>
